<svg width="40" height="40" viewBox="0 0 40 40" fill="none" xmlns="http://www.w3.org/2000/svg">
<rect width="40" height="40" rx="10" fill="#2B6088"/>
<path d="M10.1485 19.8099C15.3959 17.5237 18.895 16.0165 20.6457 15.2883C25.6445 13.2092 26.6832 12.848 27.3602 12.8361C27.5091 12.8334 27.8421 12.8703 28.0577 13.0453C28.2398 13.1931 28.2899 13.3927 28.3139 13.5328C28.3379 13.6729 28.3677 13.992 28.344 14.2414C28.0731 17.0876 26.901 23.9947 26.3047 27.1825C26.0524 28.5314 25.5556 28.9836 25.0746 29.0279C24.0293 29.1241 23.2355 28.3371 22.2231 27.6735C20.6389 26.635 19.7439 25.9885 18.2061 24.9751C16.4289 23.804 17.581 23.1603 18.5938 22.1084C18.8589 21.8331 23.4645 17.644 23.5536 17.264C23.5647 17.2164 23.5751 17.0393 23.4698 16.9457C23.3646 16.8522 23.2093 16.8842 23.0972 16.9096C22.9383 16.9457 20.4074 18.6184 15.5046 21.928C14.7863 22.4212 14.1356 22.6616 13.5526 22.649C12.9099 22.6351 11.6736 22.2856 10.7546 21.9869C9.62733 21.6204 8.73141 21.4267 8.80942 20.8044C8.85006 20.4803 9.29642 20.1488 10.1485 19.8099Z" fill="#8DCEFF"/>
</svg>
