<svg width="25" height="25" viewBox="0 0 25 25" fill="none" xmlns="http://www.w3.org/2000/svg">
<path d="M13 23L12.75 20H12.5C10.1333 20 8.125 19.175 6.475 17.525C4.825 15.875 4 13.8667 4 11.5C4 9.13333 4.825 7.125 6.475 5.475C8.125 3.825 10.1333 3 12.5 3C13.6833 3 14.7875 3.22083 15.8125 3.6625C16.8375 4.10417 17.7375 4.7125 18.5125 5.4875C19.2875 6.2625 19.8958 7.1625 20.3375 8.1875C20.7792 9.2125 21 10.3167 21 11.5C21 12.75 20.7958 13.95 20.3875 15.1C19.9792 16.25 19.4208 17.3167 18.7125 18.3C18.0042 19.2833 17.1625 20.175 16.1875 20.975C15.2125 21.775 14.15 22.45 13 23V23M15 19.35C16.1833 18.35 17.1458 17.1792 17.8875 15.8375C18.6292 14.4958 19 13.05 19 11.5C19 9.68333 18.3708 8.14583 17.1125 6.8875C15.8542 5.62917 14.3167 5 12.5 5C10.6833 5 9.14583 5.62917 7.8875 6.8875C6.62917 8.14583 6 9.68333 6 11.5C6 13.3167 6.62917 14.8542 7.8875 16.1125C9.14583 17.3708 10.6833 18 12.5 18H15V19.35V19.35M12.475 16.975C12.7583 16.975 13 16.875 13.2 16.675C13.4 16.475 13.5 16.2333 13.5 15.95C13.5 15.6667 13.4 15.425 13.2 15.225C13 15.025 12.7583 14.925 12.475 14.925C12.1917 14.925 11.95 15.025 11.75 15.225C11.55 15.425 11.45 15.6667 11.45 15.95C11.45 16.2333 11.55 16.475 11.75 16.675C11.95 16.875 12.1917 16.975 12.475 16.975V16.975M11.75 13.8H13.25C13.25 13.3 13.3 12.95 13.4 12.75C13.5 12.55 13.8167 12.1833 14.35 11.65C14.65 11.35 14.9 11.025 15.1 10.675C15.3 10.325 15.4 9.95 15.4 9.55C15.4 8.7 15.1125 8.0625 14.5375 7.6375C13.9625 7.2125 13.2833 7 12.5 7C11.7667 7 11.15 7.20417 10.65 7.6125C10.15 8.02083 9.8 8.51667 9.6 9.1L11 9.65C11.0833 9.36667 11.2417 9.0875 11.475 8.8125C11.7083 8.5375 12.05 8.4 12.5 8.4C12.95 8.4 13.2875 8.525 13.5125 8.775C13.7375 9.025 13.85 9.3 13.85 9.6C13.85 9.88333 13.7667 10.1375 13.6 10.3625C13.4333 10.5875 13.2333 10.8167 13 11.05C12.4167 11.55 12.0625 11.9458 11.9375 12.2375C11.8125 12.5292 11.75 13.05 11.75 13.8V13.8M12.5 12.175V12.175V12.175V12.175V12.175V12.175V12.175V12.175V12.175V12.175V12.175V12.175" fill="white"/>
</svg>
