<svg width="25" height="25" viewBox="0 0 25 25" fill="none" xmlns="http://www.w3.org/2000/svg">
<path d="M6.51288 22C6.06288 22 5.66288 21.8625 5.31288 21.5875C4.96288 21.3125 4.72121 20.9583 4.58788 20.525L2.03788 11.275C1.95455 10.9583 2.00871 10.6667 2.20038 10.4C2.39205 10.1333 2.65455 10 2.98788 10H7.73788L12.1379 3.45C12.2212 3.31667 12.3379 3.20833 12.4879 3.125C12.6379 3.04167 12.7962 3 12.9629 3C13.1295 3 13.2879 3.04167 13.4379 3.125C13.5879 3.20833 13.7045 3.31667 13.7879 3.45L18.1879 10H22.9879C23.3212 10 23.5837 10.1333 23.7754 10.4C23.967 10.6667 24.0212 10.9583 23.9379 11.275L21.3879 20.525C21.2545 20.9583 21.0129 21.3125 20.6629 21.5875C20.3129 21.8625 19.9129 22 19.4629 22H6.51288ZM6.48788 20H19.4879L21.6879 12H4.28788L6.48788 20ZM12.9879 18C13.5379 18 14.0087 17.8042 14.4004 17.4125C14.792 17.0208 14.9879 16.55 14.9879 16C14.9879 15.45 14.792 14.9792 14.4004 14.5875C14.0087 14.1958 13.5379 14 12.9879 14C12.4379 14 11.967 14.1958 11.5754 14.5875C11.1837 14.9792 10.9879 15.45 10.9879 16C10.9879 16.55 11.1837 17.0208 11.5754 17.4125C11.967 17.8042 12.4379 18 12.9879 18ZM10.1629 10H15.7879L12.9629 5.8L10.1629 10Z" fill="white"/>
</svg>
