<svg width="25" height="25" viewBox="0 0 25 25" fill="none" xmlns="http://www.w3.org/2000/svg">
<path d="M15 14C14.1667 14 13.4583 13.7083 12.875 13.125C12.2917 12.5417 12 11.8333 12 11C12 10.1667 12.2917 9.45833 12.875 8.875C13.4583 8.29167 14.1667 8 15 8C15.8333 8 16.5417 8.29167 17.125 8.875C17.7083 9.45833 18 10.1667 18 11C18 11.8333 17.7083 12.5417 17.125 13.125C16.5417 13.7083 15.8333 14 15 14V14M8 17C7.45 17 6.97917 16.8042 6.5875 16.4125C6.19583 16.0208 6 15.55 6 15V7C6 6.45 6.19583 5.97917 6.5875 5.5875C6.97917 5.19583 7.45 5 8 5H22C22.55 5 23.0208 5.19583 23.4125 5.5875C23.8042 5.97917 24 6.45 24 7V15C24 15.55 23.8042 16.0208 23.4125 16.4125C23.0208 16.8042 22.55 17 22 17H8V17M10 15H20C20 14.45 20.1958 13.9792 20.5875 13.5875C20.9792 13.1958 21.45 13 22 13V9C21.45 9 20.9792 8.80417 20.5875 8.4125C20.1958 8.02083 20 7.55 20 7H10C10 7.55 9.80417 8.02083 9.4125 8.4125C9.02083 8.80417 8.55 9 8 9V13C8.55 13 9.02083 13.1958 9.4125 13.5875C9.80417 13.9792 10 14.45 10 15V15M21 21H4C3.45 21 2.97917 20.8042 2.5875 20.4125C2.19583 20.0208 2 19.55 2 19V8H4V19V19V19H21V21V21M8 15V15V15V15V7V7V7V7V7V7V15V15V15V15" fill="white"/>
</svg>
