<svg width="25" height="25" viewBox="0 0 25 25" fill="none" xmlns="http://www.w3.org/2000/svg">
<path d="M11.5 16.5H14.5V14H17V11H14.5V8.5H11.5V11H9V14H11.5V16.5V16.5M13 23C10.6833 22.4167 8.77083 21.0875 7.2625 19.0125C5.75417 16.9375 5 14.6333 5 12.1V6L13 3L21 6V12.1C21 14.6333 20.2458 16.9375 18.7375 19.0125C17.2292 21.0875 15.3167 22.4167 13 23V23M13 20.9C14.7333 20.35 16.1667 19.25 17.3 17.6C18.4333 15.95 19 14.1167 19 12.1V7.375L13 5.125L7 7.375V12.1C7 14.1167 7.56667 15.95 8.7 17.6C9.83333 19.25 11.2667 20.35 13 20.9V20.9M13 13V13V13V13V13V13V13V13V13V13" fill="white"/>
</svg>
