<svg width="112" height="43" viewBox="0 0 112 43" fill="none" xmlns="http://www.w3.org/2000/svg">
    <path
        d="M1.72031 14.7002C1.57365 14.7002 1.45365 14.6535 1.36031 14.5602C1.26698 14.4669 1.22031 14.3469 1.22031 14.2002V1.2002C1.22031 1.05353 1.26698 0.933528 1.36031 0.840195C1.45365 0.746861 1.57365 0.700194 1.72031 0.700194H11.0603C11.207 0.700194 11.327 0.746861 11.4203 0.840195C11.5136 0.933528 11.5603 1.05353 11.5603 1.2002V3.08019C11.5603 3.22686 11.5136 3.34686 11.4203 3.44019C11.327 3.53353 11.207 3.58019 11.0603 3.58019H4.68031V6.28019H10.6203C10.767 6.28019 10.887 6.33353 10.9803 6.44019C11.0736 6.53353 11.1203 6.65353 11.1203 6.8002V8.54019C11.1203 8.67353 11.0736 8.79353 10.9803 8.90019C10.887 8.99353 10.767 9.04019 10.6203 9.04019H4.68031V11.8202H11.2203C11.367 11.8202 11.487 11.8669 11.5803 11.9602C11.6736 12.0535 11.7203 12.1735 11.7203 12.3202V14.2002C11.7203 14.3469 11.6736 14.4669 11.5803 14.5602C11.487 14.6535 11.367 14.7002 11.2203 14.7002H1.72031ZM13.7738 14.7002C13.6271 14.7002 13.5071 14.6535 13.4137 14.5602C13.3204 14.4669 13.2738 14.3469 13.2738 14.2002V4.80019C13.2738 4.65353 13.3204 4.53353 13.4137 4.4402C13.5071 4.34686 13.6271 4.30019 13.7738 4.30019H15.9538C16.1004 4.30019 16.2204 4.34686 16.3138 4.4402C16.4071 4.53353 16.4538 4.65353 16.4538 4.80019V5.48019C16.7204 5.12019 17.0938 4.80686 17.5738 4.54019C18.0538 4.26019 18.6204 4.11353 19.2738 4.10019C20.8071 4.07353 21.8604 4.65353 22.4338 5.84019C22.7404 5.33353 23.1804 4.92019 23.7538 4.6002C24.3271 4.26686 24.9538 4.10019 25.6338 4.10019C26.3271 4.10019 26.9471 4.26019 27.4938 4.58019C28.0538 4.88686 28.5004 5.36686 28.8338 6.0202C29.1671 6.6602 29.3338 7.49353 29.3338 8.5202V14.2002C29.3338 14.3469 29.2804 14.4669 29.1738 14.5602C29.0804 14.6535 28.9671 14.7002 28.8338 14.7002H26.5138C26.3671 14.7002 26.2404 14.6535 26.1338 14.5602C26.0404 14.4669 25.9938 14.3469 25.9938 14.2002V8.66019C25.9938 8.19353 25.9271 7.82686 25.7938 7.56019C25.6604 7.28019 25.4804 7.08019 25.2538 6.96019C25.0271 6.84019 24.7671 6.78019 24.4738 6.78019C24.2338 6.78019 23.9938 6.84019 23.7538 6.96019C23.5271 7.08019 23.3404 7.28019 23.1938 7.56019C23.0604 7.82686 22.9938 8.19353 22.9938 8.66019V14.2002C22.9938 14.3469 22.9471 14.4669 22.8538 14.5602C22.7604 14.6535 22.6404 14.7002 22.4938 14.7002H20.1738C20.0271 14.7002 19.9071 14.6535 19.8138 14.5602C19.7204 14.4669 19.6738 14.3469 19.6738 14.2002V8.66019C19.6738 8.19353 19.6004 7.82686 19.4538 7.56019C19.3071 7.28019 19.1204 7.08019 18.8938 6.96019C18.6671 6.84019 18.4138 6.78019 18.1338 6.78019C17.8938 6.78019 17.6538 6.84019 17.4138 6.96019C17.1871 7.08019 17.0004 7.28019 16.8538 7.56019C16.7204 7.82686 16.6538 8.18686 16.6538 8.6402V14.2002C16.6538 14.3469 16.6004 14.4669 16.4938 14.5602C16.4004 14.6535 16.2804 14.7002 16.1338 14.7002H13.7738ZM31.5745 18.5002C31.4279 18.5002 31.3079 18.4535 31.2145 18.3602C31.1212 18.2669 31.0745 18.1469 31.0745 18.0002V4.80019C31.0745 4.65353 31.1212 4.53353 31.2145 4.4402C31.3079 4.34686 31.4279 4.30019 31.5745 4.30019H33.8345C33.9679 4.30019 34.0812 4.34686 34.1745 4.4402C34.2812 4.53353 34.3345 4.65353 34.3345 4.80019V5.54019C34.6412 5.12686 35.0479 4.78686 35.5545 4.5202C36.0612 4.24019 36.6879 4.10019 37.4345 4.10019C38.1012 4.10019 38.6879 4.20686 39.1945 4.4202C39.7012 4.6202 40.1345 4.9202 40.4945 5.3202C40.8545 5.7202 41.1345 6.20686 41.3345 6.78019C41.5479 7.35353 41.6679 8.01353 41.6945 8.76019C41.7079 9.02686 41.7145 9.27353 41.7145 9.50019C41.7145 9.72686 41.7079 9.97353 41.6945 10.2402C41.6679 10.9602 41.5545 11.6069 41.3545 12.1802C41.1545 12.7535 40.8745 13.2402 40.5145 13.6402C40.1545 14.0402 39.7145 14.3535 39.1945 14.5802C38.6879 14.7935 38.1012 14.9002 37.4345 14.9002C36.7812 14.9002 36.2079 14.7869 35.7145 14.5602C35.2345 14.3202 34.8345 13.9869 34.5145 13.5602V18.0002C34.5145 18.1469 34.4679 18.2669 34.3745 18.3602C34.2812 18.4535 34.1612 18.5002 34.0145 18.5002H31.5745ZM36.3545 12.2202C36.8079 12.2202 37.1612 12.1269 37.4145 11.9402C37.6679 11.7535 37.8479 11.5002 37.9545 11.1802C38.0745 10.8602 38.1479 10.5069 38.1745 10.1202C38.2012 9.70686 38.2012 9.29353 38.1745 8.8802C38.1479 8.49353 38.0745 8.14019 37.9545 7.8202C37.8479 7.50019 37.6679 7.24686 37.4145 7.06019C37.1612 6.87353 36.8079 6.78019 36.3545 6.78019C35.9145 6.78019 35.5612 6.88019 35.2945 7.0802C35.0279 7.26686 34.8345 7.51353 34.7145 7.8202C34.5945 8.12686 34.5279 8.4602 34.5145 8.8202C34.5012 9.07353 34.4945 9.3202 34.4945 9.5602C34.4945 9.8002 34.5012 10.0535 34.5145 10.3202C34.5279 10.6535 34.6012 10.9669 34.7345 11.2602C34.8679 11.5402 35.0679 11.7735 35.3345 11.9602C35.6012 12.1335 35.9412 12.2202 36.3545 12.2202ZM46.3117 14.9002C45.5917 14.9002 44.9451 14.7669 44.3717 14.5002C43.8117 14.2202 43.3651 13.8469 43.0317 13.3802C42.6984 12.9135 42.5317 12.3869 42.5317 11.8002C42.5317 10.8535 42.9184 10.1069 43.6917 9.5602C44.4651 9.00019 45.4917 8.62019 46.7717 8.4202L49.2717 8.0402V7.7602C49.2717 7.2802 49.1717 6.91353 48.9717 6.6602C48.7717 6.40686 48.4051 6.28019 47.8717 6.28019C47.4984 6.28019 47.1917 6.35353 46.9517 6.50019C46.7251 6.64686 46.5451 6.84686 46.4117 7.10019C46.2917 7.27353 46.1251 7.3602 45.9117 7.3602H43.6717C43.5251 7.3602 43.4117 7.32019 43.3317 7.24019C43.2517 7.14686 43.2184 7.04019 43.2317 6.92019C43.2317 6.6802 43.3184 6.40686 43.4917 6.1002C43.6784 5.78019 43.9584 5.46686 44.3317 5.16019C44.7051 4.85353 45.1851 4.6002 45.7717 4.40019C46.3584 4.20019 47.0651 4.10019 47.8917 4.10019C48.7584 4.10019 49.4984 4.20019 50.1117 4.40019C50.7251 4.6002 51.2184 4.8802 51.5917 5.24019C51.9784 5.6002 52.2651 6.02686 52.4517 6.5202C52.6384 7.00019 52.7317 7.53353 52.7317 8.12019V14.2002C52.7317 14.3469 52.6784 14.4669 52.5717 14.5602C52.4784 14.6535 52.3651 14.7002 52.2317 14.7002H49.9117C49.7651 14.7002 49.6451 14.6535 49.5517 14.5602C49.4584 14.4669 49.4117 14.3469 49.4117 14.2002V13.5002C49.2384 13.7535 49.0051 13.9869 48.7117 14.2002C48.4184 14.4135 48.0717 14.5802 47.6717 14.7002C47.2851 14.8335 46.8317 14.9002 46.3117 14.9002ZM47.2517 12.6202C47.6384 12.6202 47.9851 12.5402 48.2917 12.3802C48.6117 12.2069 48.8584 11.9469 49.0317 11.6002C49.2184 11.2402 49.3117 10.7935 49.3117 10.2602V9.98019L47.6117 10.2802C46.9851 10.3869 46.5251 10.5535 46.2317 10.7802C45.9517 10.9935 45.8117 11.2469 45.8117 11.5402C45.8117 11.7669 45.8784 11.9602 46.0117 12.1202C46.1451 12.2802 46.3184 12.4069 46.5317 12.5002C46.7451 12.5802 46.9851 12.6202 47.2517 12.6202ZM59.7305 14.7002C58.8771 14.7002 58.1371 14.5669 57.5105 14.3002C56.8971 14.0202 56.4238 13.5935 56.0905 13.0202C55.7571 12.4335 55.5905 11.6802 55.5905 10.7602V6.92019H54.0305C53.8838 6.92019 53.7571 6.87353 53.6505 6.78019C53.5571 6.68686 53.5105 6.56686 53.5105 6.42019V4.80019C53.5105 4.65353 53.5571 4.53353 53.6505 4.4402C53.7571 4.34686 53.8838 4.30019 54.0305 4.30019H55.5905V1.00019C55.5905 0.853528 55.6371 0.733528 55.7305 0.640195C55.8371 0.546861 55.9571 0.500195 56.0905 0.500195H58.4105C58.5571 0.500195 58.6771 0.546861 58.7705 0.640195C58.8638 0.733528 58.9105 0.853528 58.9105 1.00019V4.30019H61.4105C61.5571 4.30019 61.6771 4.34686 61.7705 4.4402C61.8638 4.53353 61.9105 4.65353 61.9105 4.80019V6.42019C61.9105 6.56686 61.8638 6.68686 61.7705 6.78019C61.6771 6.87353 61.5571 6.92019 61.4105 6.92019H58.9105V10.4802C58.9105 10.9335 58.9971 11.2935 59.1705 11.5602C59.3438 11.8269 59.6371 11.9602 60.0505 11.9602H61.5905C61.7371 11.9602 61.8571 12.0069 61.9505 12.1002C62.0438 12.1935 62.0905 12.3135 62.0905 12.4602V14.2002C62.0905 14.3469 62.0438 14.4669 61.9505 14.5602C61.8571 14.6535 61.7371 14.7002 61.5905 14.7002H59.7305ZM63.7464 14.7002C63.5997 14.7002 63.4797 14.6535 63.3864 14.5602C63.2931 14.4669 63.2464 14.3469 63.2464 14.2002V1.00019C63.2464 0.853528 63.2931 0.733528 63.3864 0.640195C63.4797 0.546861 63.5997 0.500195 63.7464 0.500195H66.3064C66.4531 0.500195 66.5731 0.546861 66.6664 0.640195C66.7597 0.733528 66.8064 0.853528 66.8064 1.00019V5.4602C67.1664 5.04686 67.6064 4.72019 68.1264 4.48019C68.6597 4.22686 69.2731 4.10019 69.9664 4.10019C70.7397 4.10019 71.4264 4.27353 72.0264 4.6202C72.6397 4.96686 73.1197 5.4802 73.4664 6.16019C73.8131 6.82686 73.9864 7.64686 73.9864 8.62019V14.2002C73.9864 14.3469 73.9397 14.4669 73.8464 14.5602C73.7531 14.6535 73.6331 14.7002 73.4864 14.7002H70.9064C70.7731 14.7002 70.6531 14.6535 70.5464 14.5602C70.4531 14.4669 70.4064 14.3469 70.4064 14.2002V8.7402C70.4064 8.11353 70.2531 7.63353 69.9464 7.3002C69.6531 6.95353 69.2131 6.78019 68.6264 6.78019C68.0797 6.78019 67.6397 6.95353 67.3064 7.3002C66.9731 7.63353 66.8064 8.11353 66.8064 8.7402V14.2002C66.8064 14.3469 66.7597 14.4669 66.6664 14.5602C66.5731 14.6535 66.4531 14.7002 66.3064 14.7002H63.7464ZM80.5542 14.9002C78.9809 14.9002 77.7276 14.4735 76.7942 13.6202C75.8609 12.7669 75.3742 11.5002 75.3342 9.82019C75.3342 9.72686 75.3342 9.60686 75.3342 9.46019C75.3342 9.31353 75.3342 9.2002 75.3342 9.1202C75.3742 8.06686 75.6076 7.16686 76.0342 6.42019C76.4742 5.66019 77.0742 5.08686 77.8342 4.7002C78.6076 4.30019 79.5076 4.10019 80.5342 4.10019C81.7076 4.10019 82.6742 4.33353 83.4342 4.80019C84.2076 5.26686 84.7876 5.9002 85.1742 6.7002C85.5609 7.5002 85.7542 8.41353 85.7542 9.4402V9.9202C85.7542 10.0669 85.7009 10.1869 85.5942 10.2802C85.5009 10.3735 85.3876 10.4202 85.2542 10.4202H78.8542C78.8542 10.4335 78.8542 10.4535 78.8542 10.4802C78.8542 10.5069 78.8542 10.5335 78.8542 10.5602C78.8676 10.9469 78.9342 11.3002 79.0542 11.6202C79.1742 11.9402 79.3609 12.1935 79.6142 12.3802C79.8676 12.5669 80.1742 12.6602 80.5342 12.6602C80.8009 12.6602 81.0209 12.6202 81.1942 12.5402C81.3809 12.4469 81.5342 12.3469 81.6542 12.2402C81.7742 12.1202 81.8676 12.0202 81.9342 11.9402C82.0542 11.8069 82.1476 11.7269 82.2142 11.7002C82.2942 11.6602 82.4142 11.6402 82.5742 11.6402H85.0542C85.1876 11.6402 85.2942 11.6802 85.3742 11.7602C85.4676 11.8269 85.5076 11.9269 85.4942 12.0602C85.4809 12.2869 85.3676 12.5602 85.1542 12.8802C84.9409 13.2002 84.6276 13.5202 84.2142 13.8402C83.8142 14.1469 83.3076 14.4002 82.6942 14.6002C82.0809 14.8002 81.3676 14.9002 80.5542 14.9002ZM78.8542 8.44019H82.2342V8.40019C82.2342 7.97353 82.1676 7.6002 82.0342 7.28019C81.9142 6.9602 81.7209 6.71353 81.4542 6.54019C81.2009 6.36686 80.8942 6.28019 80.5342 6.28019C80.1742 6.28019 79.8676 6.36686 79.6142 6.54019C79.3742 6.71353 79.1876 6.9602 79.0542 7.28019C78.9209 7.6002 78.8542 7.97353 78.8542 8.40019V8.44019ZM92.4297 14.7002C91.5764 14.7002 90.8364 14.5669 90.2097 14.3002C89.5964 14.0202 89.123 13.5935 88.7897 13.0202C88.4564 12.4335 88.2897 11.6802 88.2897 10.7602V6.92019H86.7297C86.583 6.92019 86.4564 6.87353 86.3497 6.78019C86.2564 6.68686 86.2097 6.56686 86.2097 6.42019V4.80019C86.2097 4.65353 86.2564 4.53353 86.3497 4.4402C86.4564 4.34686 86.583 4.30019 86.7297 4.30019H88.2897V1.00019C88.2897 0.853528 88.3364 0.733528 88.4297 0.640195C88.5364 0.546861 88.6564 0.500195 88.7897 0.500195H91.1097C91.2564 0.500195 91.3764 0.546861 91.4697 0.640195C91.563 0.733528 91.6097 0.853528 91.6097 1.00019V4.30019H94.1097C94.2564 4.30019 94.3764 4.34686 94.4697 4.4402C94.563 4.53353 94.6097 4.65353 94.6097 4.80019V6.42019C94.6097 6.56686 94.563 6.68686 94.4697 6.78019C94.3764 6.87353 94.2564 6.92019 94.1097 6.92019H91.6097V10.4802C91.6097 10.9335 91.6964 11.2935 91.8697 11.5602C92.043 11.8269 92.3364 11.9602 92.7497 11.9602H94.2897C94.4364 11.9602 94.5564 12.0069 94.6497 12.1002C94.743 12.1935 94.7897 12.3135 94.7897 12.4602V14.2002C94.7897 14.3469 94.743 14.4669 94.6497 14.5602C94.5564 14.6535 94.4364 14.7002 94.2897 14.7002H92.4297ZM96.4456 14.7002C96.299 14.7002 96.179 14.6535 96.0856 14.5602C95.9923 14.4669 95.9456 14.3469 95.9456 14.2002V4.80019C95.9456 4.65353 95.9923 4.53353 96.0856 4.4402C96.179 4.34686 96.299 4.30019 96.4456 4.30019H98.8056C98.939 4.30019 99.0523 4.34686 99.1456 4.4402C99.2523 4.53353 99.3056 4.65353 99.3056 4.80019V14.2002C99.3056 14.3469 99.2523 14.4669 99.1456 14.5602C99.0523 14.6535 98.939 14.7002 98.8056 14.7002H96.4456ZM96.4256 2.80019C96.279 2.80019 96.159 2.75353 96.0656 2.66019C95.9723 2.56686 95.9256 2.44686 95.9256 2.3002V0.520194C95.9256 0.373528 95.9723 0.253528 96.0656 0.160194C96.159 0.0535281 96.279 0.000195026 96.4256 0.000195026H98.8056C98.9523 0.000195026 99.0723 0.0535281 99.1656 0.160194C99.2723 0.253528 99.3256 0.373528 99.3256 0.520194V2.3002C99.3256 2.44686 99.2723 2.56686 99.1656 2.66019C99.0723 2.75353 98.9523 2.80019 98.8056 2.80019H96.4256ZM105.929 14.9002C104.942 14.9002 104.069 14.7202 103.309 14.3602C102.549 14.0002 101.942 13.4802 101.489 12.8002C101.049 12.1069 100.809 11.2802 100.769 10.3202C100.755 10.1069 100.749 9.8402 100.749 9.5202C100.749 9.18686 100.755 8.91353 100.769 8.7002C100.809 7.72686 101.049 6.90019 101.489 6.22019C101.929 5.52686 102.529 5.0002 103.289 4.64019C104.062 4.28019 104.942 4.10019 105.929 4.10019C106.849 4.10019 107.635 4.23353 108.289 4.50019C108.942 4.75353 109.475 5.07353 109.889 5.4602C110.302 5.84686 110.609 6.24686 110.809 6.6602C111.022 7.0602 111.135 7.41353 111.149 7.7202C111.162 7.85353 111.115 7.97353 111.009 8.08019C110.902 8.17353 110.782 8.2202 110.649 8.2202H108.109C107.962 8.2202 107.849 8.18686 107.769 8.12019C107.689 8.05353 107.615 7.95353 107.549 7.8202C107.389 7.40686 107.182 7.11353 106.929 6.9402C106.689 6.76686 106.375 6.68019 105.989 6.68019C105.455 6.68019 105.042 6.85353 104.749 7.20019C104.469 7.54686 104.315 8.0802 104.289 8.80019C104.275 9.33353 104.275 9.80686 104.289 10.2202C104.315 10.9535 104.469 11.4869 104.749 11.8202C105.042 12.1535 105.455 12.3202 105.989 12.3202C106.402 12.3202 106.729 12.2335 106.969 12.0602C107.209 11.8869 107.402 11.5935 107.549 11.1802C107.615 11.0469 107.689 10.9469 107.769 10.8802C107.849 10.8135 107.962 10.7802 108.109 10.7802H110.649C110.782 10.7802 110.902 10.8335 111.009 10.9402C111.115 11.0335 111.162 11.1469 111.149 11.2802C111.135 11.5069 111.069 11.7735 110.949 12.0802C110.829 12.3735 110.642 12.6869 110.389 13.0202C110.135 13.3535 109.802 13.6669 109.389 13.9602C108.989 14.2402 108.502 14.4669 107.929 14.6402C107.355 14.8135 106.689 14.9002 105.929 14.9002ZM0.420313 38.7002C0.313646 38.7002 0.213646 38.6602 0.120313 38.5802C0.0403125 38.4869 0.000312511 38.3869 0.000312511 38.2802C0.000312511 38.2135 0.00697918 38.1535 0.0203125 38.1002L4.72031 25.2602C4.76031 25.1135 4.84031 24.9869 4.96031 24.8802C5.09365 24.7602 5.27365 24.7002 5.50031 24.7002H8.46031C8.68698 24.7002 8.86031 24.7602 8.98031 24.8802C9.11365 24.9869 9.20031 25.1135 9.24031 25.2602L13.9203 38.1002C13.947 38.1535 13.9603 38.2135 13.9603 38.2802C13.9603 38.3869 13.9136 38.4869 13.8203 38.5802C13.7403 38.6602 13.6403 38.7002 13.5203 38.7002H11.0603C10.8603 38.7002 10.707 38.6535 10.6003 38.5602C10.507 38.4535 10.447 38.3602 10.4203 38.2802L9.64031 36.2402H4.30031L3.54031 38.2802C3.51365 38.3602 3.45365 38.4535 3.36031 38.5602C3.26698 38.6535 3.10698 38.7002 2.88031 38.7002H0.420313ZM5.12031 33.3602H8.84031L6.96031 28.0802L5.12031 33.3602ZM15.3167 42.5002C15.1701 42.5002 15.0501 42.4535 14.9567 42.3602C14.8634 42.2669 14.8167 42.1469 14.8167 42.0002V28.8002C14.8167 28.6535 14.8634 28.5335 14.9567 28.4402C15.0501 28.3469 15.1701 28.3002 15.3167 28.3002H17.5767C17.7101 28.3002 17.8234 28.3469 17.9167 28.4402C18.0234 28.5335 18.0767 28.6535 18.0767 28.8002V29.5402C18.3834 29.1269 18.7901 28.7869 19.2967 28.5202C19.8034 28.2402 20.4301 28.1002 21.1767 28.1002C21.8434 28.1002 22.4301 28.2069 22.9367 28.4202C23.4434 28.6202 23.8767 28.9202 24.2367 29.3202C24.5967 29.7202 24.8767 30.2069 25.0767 30.7802C25.2901 31.3535 25.4101 32.0135 25.4367 32.7602C25.4501 33.0269 25.4567 33.2735 25.4567 33.5002C25.4567 33.7269 25.4501 33.9735 25.4367 34.2402C25.4101 34.9602 25.2967 35.6069 25.0967 36.1802C24.8967 36.7535 24.6167 37.2402 24.2567 37.6402C23.8967 38.0402 23.4567 38.3535 22.9367 38.5802C22.4301 38.7935 21.8434 38.9002 21.1767 38.9002C20.5234 38.9002 19.9501 38.7869 19.4567 38.5602C18.9767 38.3202 18.5767 37.9869 18.2567 37.5602V42.0002C18.2567 42.1469 18.2101 42.2669 18.1167 42.3602C18.0234 42.4535 17.9034 42.5002 17.7567 42.5002H15.3167ZM20.0967 36.2202C20.5501 36.2202 20.9034 36.1269 21.1567 35.9402C21.4101 35.7535 21.5901 35.5002 21.6967 35.1802C21.8167 34.8602 21.8901 34.5069 21.9167 34.1202C21.9434 33.7069 21.9434 33.2935 21.9167 32.8802C21.8901 32.4935 21.8167 32.1402 21.6967 31.8202C21.5901 31.5002 21.4101 31.2469 21.1567 31.0602C20.9034 30.8735 20.5501 30.7802 20.0967 30.7802C19.6567 30.7802 19.3034 30.8802 19.0367 31.0802C18.7701 31.2669 18.5767 31.5135 18.4567 31.8202C18.3367 32.1269 18.2701 32.4602 18.2567 32.8202C18.2434 33.0735 18.2367 33.3202 18.2367 33.5602C18.2367 33.8002 18.2434 34.0535 18.2567 34.3202C18.2701 34.6535 18.3434 34.9669 18.4767 35.2602C18.6101 35.5402 18.8101 35.7735 19.0767 35.9602C19.3434 36.1335 19.6834 36.2202 20.0967 36.2202ZM27.4339 42.5002C27.2872 42.5002 27.1672 42.4535 27.0739 42.3602C26.9806 42.2669 26.9339 42.1469 26.9339 42.0002V28.8002C26.9339 28.6535 26.9806 28.5335 27.0739 28.4402C27.1672 28.3469 27.2872 28.3002 27.4339 28.3002H29.6939C29.8272 28.3002 29.9406 28.3469 30.0339 28.4402C30.1406 28.5335 30.1939 28.6535 30.1939 28.8002V29.5402C30.5006 29.1269 30.9072 28.7869 31.4139 28.5202C31.9206 28.2402 32.5472 28.1002 33.2939 28.1002C33.9606 28.1002 34.5472 28.2069 35.0539 28.4202C35.5606 28.6202 35.9939 28.9202 36.3539 29.3202C36.7139 29.7202 36.9939 30.2069 37.1939 30.7802C37.4072 31.3535 37.5272 32.0135 37.5539 32.7602C37.5672 33.0269 37.5739 33.2735 37.5739 33.5002C37.5739 33.7269 37.5672 33.9735 37.5539 34.2402C37.5272 34.9602 37.4139 35.6069 37.2139 36.1802C37.0139 36.7535 36.7339 37.2402 36.3739 37.6402C36.0139 38.0402 35.5739 38.3535 35.0539 38.5802C34.5472 38.7935 33.9606 38.9002 33.2939 38.9002C32.6406 38.9002 32.0672 38.7869 31.5739 38.5602C31.0939 38.3202 30.6939 37.9869 30.3739 37.5602V42.0002C30.3739 42.1469 30.3272 42.2669 30.2339 42.3602C30.1406 42.4535 30.0206 42.5002 29.8739 42.5002H27.4339ZM32.2139 36.2202C32.6672 36.2202 33.0206 36.1269 33.2739 35.9402C33.5272 35.7535 33.7072 35.5002 33.8139 35.1802C33.9339 34.8602 34.0072 34.5069 34.0339 34.1202C34.0606 33.7069 34.0606 33.2935 34.0339 32.8802C34.0072 32.4935 33.9339 32.1402 33.8139 31.8202C33.7072 31.5002 33.5272 31.2469 33.2739 31.0602C33.0206 30.8735 32.6672 30.7802 32.2139 30.7802C31.7739 30.7802 31.4206 30.8802 31.1539 31.0802C30.8872 31.2669 30.6939 31.5135 30.5739 31.8202C30.4539 32.1269 30.3872 32.4602 30.3739 32.8202C30.3606 33.0735 30.3539 33.3202 30.3539 33.5602C30.3539 33.8002 30.3606 34.0535 30.3739 34.3202C30.3872 34.6535 30.4606 34.9669 30.5939 35.2602C30.7272 35.5402 30.9272 35.7735 31.1939 35.9602C31.4606 36.1335 31.8006 36.2202 32.2139 36.2202ZM43.8511 38.9002C42.2778 38.9002 41.0244 38.4735 40.0911 37.6202C39.1578 36.7669 38.6711 35.5002 38.6311 33.8202C38.6311 33.7269 38.6311 33.6069 38.6311 33.4602C38.6311 33.3135 38.6311 33.2002 38.6311 33.1202C38.6711 32.0669 38.9044 31.1669 39.3311 30.4202C39.7711 29.6602 40.3711 29.0869 41.1311 28.7002C41.9044 28.3002 42.8044 28.1002 43.8311 28.1002C45.0044 28.1002 45.9711 28.3335 46.7311 28.8002C47.5044 29.2669 48.0844 29.9002 48.4711 30.7002C48.8578 31.5002 49.0511 32.4135 49.0511 33.4402V33.9202C49.0511 34.0669 48.9978 34.1869 48.8911 34.2802C48.7978 34.3735 48.6844 34.4202 48.5511 34.4202H42.1511C42.1511 34.4335 42.1511 34.4535 42.1511 34.4802C42.1511 34.5069 42.1511 34.5335 42.1511 34.5602C42.1644 34.9469 42.2311 35.3002 42.3511 35.6202C42.4711 35.9402 42.6578 36.1935 42.9111 36.3802C43.1644 36.5669 43.4711 36.6602 43.8311 36.6602C44.0978 36.6602 44.3178 36.6202 44.4911 36.5402C44.6778 36.4469 44.8311 36.3469 44.9511 36.2402C45.0711 36.1202 45.1644 36.0202 45.2311 35.9402C45.3511 35.8069 45.4444 35.7269 45.5111 35.7002C45.5911 35.6602 45.7111 35.6402 45.8711 35.6402H48.3511C48.4844 35.6402 48.5911 35.6802 48.6711 35.7602C48.7644 35.8269 48.8044 35.9269 48.7911 36.0602C48.7778 36.2869 48.6644 36.5602 48.4511 36.8802C48.2378 37.2002 47.9244 37.5202 47.5111 37.8402C47.1111 38.1469 46.6044 38.4002 45.9911 38.6002C45.3778 38.8002 44.6644 38.9002 43.8511 38.9002ZM42.1511 32.4402H45.5311V32.4002C45.5311 31.9735 45.4644 31.6002 45.3311 31.2802C45.2111 30.9602 45.0178 30.7135 44.7511 30.5402C44.4978 30.3669 44.1911 30.2802 43.8311 30.2802C43.4711 30.2802 43.1644 30.3669 42.9111 30.5402C42.6711 30.7135 42.4844 30.9602 42.3511 31.2802C42.2178 31.6002 42.1511 31.9735 42.1511 32.4002V32.4402ZM53.5461 38.9002C52.8261 38.9002 52.1794 38.7669 51.6061 38.5002C51.0461 38.2202 50.5994 37.8469 50.2661 37.3802C49.9328 36.9135 49.7661 36.3869 49.7661 35.8002C49.7661 34.8535 50.1528 34.1069 50.9261 33.5602C51.6994 33.0002 52.7261 32.6202 54.0061 32.4202L56.5061 32.0402V31.7602C56.5061 31.2802 56.4061 30.9135 56.2061 30.6602C56.0061 30.4069 55.6394 30.2802 55.1061 30.2802C54.7328 30.2802 54.4261 30.3535 54.1861 30.5002C53.9594 30.6469 53.7794 30.8469 53.6461 31.1002C53.5261 31.2735 53.3594 31.3602 53.1461 31.3602H50.9061C50.7594 31.3602 50.6461 31.3202 50.5661 31.2402C50.4861 31.1469 50.4528 31.0402 50.4661 30.9202C50.4661 30.6802 50.5528 30.4069 50.7261 30.1002C50.9128 29.7802 51.1928 29.4669 51.5661 29.1602C51.9394 28.8535 52.4194 28.6002 53.0061 28.4002C53.5928 28.2002 54.2994 28.1002 55.1261 28.1002C55.9928 28.1002 56.7328 28.2002 57.3461 28.4002C57.9594 28.6002 58.4528 28.8802 58.8261 29.2402C59.2128 29.6002 59.4994 30.0269 59.6861 30.5202C59.8728 31.0002 59.9661 31.5335 59.9661 32.1202V38.2002C59.9661 38.3469 59.9128 38.4669 59.8061 38.5602C59.7128 38.6535 59.5994 38.7002 59.4661 38.7002H57.1461C56.9994 38.7002 56.8794 38.6535 56.7861 38.5602C56.6928 38.4669 56.6461 38.3469 56.6461 38.2002V37.5002C56.4728 37.7535 56.2394 37.9869 55.9461 38.2002C55.6528 38.4135 55.3061 38.5802 54.9061 38.7002C54.5194 38.8335 54.0661 38.9002 53.5461 38.9002ZM54.4861 36.6202C54.8728 36.6202 55.2194 36.5402 55.5261 36.3802C55.8461 36.2069 56.0928 35.9469 56.2661 35.6002C56.4528 35.2402 56.5461 34.7935 56.5461 34.2602V33.9802L54.8461 34.2802C54.2194 34.3869 53.7594 34.5535 53.4661 34.7802C53.1861 34.9935 53.0461 35.2469 53.0461 35.5402C53.0461 35.7669 53.1128 35.9602 53.2461 36.1202C53.3794 36.2802 53.5528 36.4069 53.7661 36.5002C53.9794 36.5802 54.2194 36.6202 54.4861 36.6202ZM62.223 38.7002C62.0763 38.7002 61.9563 38.6535 61.863 38.5602C61.7696 38.4669 61.723 38.3469 61.723 38.2002V25.0002C61.723 24.8535 61.7696 24.7335 61.863 24.6402C61.9563 24.5469 62.0763 24.5002 62.223 24.5002H64.583C64.7296 24.5002 64.8496 24.5469 64.943 24.6402C65.0363 24.7335 65.083 24.8535 65.083 25.0002V38.2002C65.083 38.3469 65.0363 38.4669 64.943 38.5602C64.8496 38.6535 64.7296 38.7002 64.583 38.7002H62.223Z"
        fill="#0C4A6E" />
</svg>