<svg width="48" height="48" viewBox="0 0 48 48" fill="none" xmlns="http://www.w3.org/2000/svg">
<rect width="48" height="48" rx="24" fill="#C6E5E7"/>
<path d="M24 30C22.3333 30 20.9167 29.4167 19.75 28.25C18.5833 27.0833 18 25.6667 18 24C18 22.3333 18.5833 20.9167 19.75 19.75C20.9167 18.5833 22.3333 18 24 18C25.6667 18 27.0833 18.5833 28.25 19.75C29.4167 20.9167 30 22.3333 30 24C30 25.6667 29.4167 27.0833 28.25 28.25C27.0833 29.4167 25.6667 30 24 30V30M23.25 27.925V25.8L21.75 27.3C21.9833 27.45 22.2208 27.5792 22.4625 27.6875C22.7042 27.7958 22.9667 27.875 23.25 27.925V27.925M24.75 27.925C25.0167 27.875 25.275 27.7958 25.525 27.6875C25.775 27.5792 26.0167 27.45 26.25 27.3L24.75 25.8V27.925V27.925M27.3 26.25C27.45 26.0167 27.5792 25.775 27.6875 25.525C27.7958 25.275 27.875 25.0167 27.925 24.75H25.8L27.3 26.25V26.25M25.8 23.25H27.925C27.875 22.9833 27.7958 22.725 27.6875 22.475C27.5792 22.225 27.45 21.9833 27.3 21.75L25.8 23.25V23.25M24.75 22.2L26.25 20.7C26.0167 20.55 25.7792 20.4208 25.5375 20.3125C25.2958 20.2042 25.0333 20.125 24.75 20.075V22.2V22.2M24 25C24.2833 25 24.5208 24.9042 24.7125 24.7125C24.9042 24.5208 25 24.2833 25 24C25 23.7167 24.9042 23.4792 24.7125 23.2875C24.5208 23.0958 24.2833 23 24 23C23.7167 23 23.4792 23.0958 23.2875 23.2875C23.0958 23.4792 23 23.7167 23 24C23 24.2833 23.0958 24.5208 23.2875 24.7125C23.4792 24.9042 23.7167 25 24 25V25M23.25 22.2V20.075C22.9833 20.125 22.725 20.2042 22.475 20.3125C22.225 20.4208 21.9833 20.55 21.75 20.7L23.25 22.2V22.2M20.075 23.25H22.2L20.7 21.75C20.55 21.9833 20.4208 22.225 20.3125 22.475C20.2042 22.725 20.125 22.9833 20.075 23.25V23.25M20.7 26.25L22.2 24.75H20.075C20.125 25.0167 20.2042 25.275 20.3125 25.525C20.4208 25.775 20.55 26.0167 20.7 26.25V26.25M17 33C16.45 33 15.9792 32.8042 15.5875 32.4125C15.1958 32.0208 15 31.55 15 31V17C15 16.45 15.1958 15.9792 15.5875 15.5875C15.9792 15.1958 16.45 15 17 15H31C31.55 15 32.0208 15.1958 32.4125 15.5875C32.8042 15.9792 33 16.45 33 17V31C33 31.55 32.8042 32.0208 32.4125 32.4125C32.0208 32.8042 31.55 33 31 33H17V33M17 31H31V31V31V17V17V17H17V17V17V31V31V31V31M17 17V17V17V17V31V31V31V31V31V31V17V17V17V17" fill="#2B6088"/>
</svg>
